<svg width="32" height="32" viewBox="0 0 32 32" fill="none" xmlns="http://www.w3.org/2000/svg">
<path d="M26.8001 12.2933C24.3867 12.2933 23.4001 10.5867 24.6001 8.49333C25.2934 7.28 24.8801 5.73333 23.6667 5.04L21.3601 3.72C20.3067 3.09333 18.9467 3.46666 18.3201 4.52L18.1734 4.77333C16.9734 6.86666 15.0001 6.86666 13.7867 4.77333L13.6401 4.52C13.0401 3.46666 11.6801 3.09333 10.6267 3.72L8.32008 5.04C7.10675 5.73333 6.69341 7.29333 7.38675 8.50666C8.60008 10.5867 7.61341 12.2933 5.20008 12.2933C3.81341 12.2933 2.66675 13.4267 2.66675 14.8267V17.1733C2.66675 18.56 3.80008 19.7067 5.20008 19.7067C7.61341 19.7067 8.60008 21.4133 7.38675 23.5067C6.69341 24.72 7.10675 26.2667 8.32008 26.96L10.6267 28.28C11.6801 28.9067 13.0401 28.5333 13.6667 27.48L13.8134 27.2267C15.0134 25.1333 16.9867 25.1333 18.2001 27.2267L18.3467 27.48C18.9734 28.5333 20.3334 28.9067 21.3867 28.28L23.6934 26.96C24.9067 26.2667 25.3201 24.7067 24.6267 23.5067C23.4134 21.4133 24.4001 19.7067 26.8134 19.7067C28.2001 19.7067 29.3467 18.5733 29.3467 17.1733V14.8267C29.3334 13.44 28.2001 12.2933 26.8001 12.2933ZM16.0001 20.3333C13.6134 20.3333 11.6667 18.3867 11.6667 16C11.6667 13.6133 13.6134 11.6667 16.0001 11.6667C18.3867 11.6667 20.3334 13.6133 20.3334 16C20.3334 18.3867 18.3867 20.3333 16.0001 20.3333Z" fill="#674188"/>
</svg>
